<?xml version="1.0" encoding="UTF-8" standalone="no"?>
<!-- Created with Inkscape (http://www.inkscape.org/) -->

<svg
   xmlns:dc="http://purl.org/dc/elements/1.1/"
   xmlns:cc="http://creativecommons.org/ns#"
   xmlns:rdf="http://www.w3.org/1999/02/22-rdf-syntax-ns#"
   xmlns:svg="http://www.w3.org/2000/svg"
   xmlns="http://www.w3.org/2000/svg"
   xmlns:sodipodi="http://sodipodi.sourceforge.net/DTD/sodipodi-0.dtd"
   xmlns:inkscape="http://www.inkscape.org/namespaces/inkscape"
   width="16"
   height="16"
   viewBox="0 0 4.2333332 4.2333332"
   version="1.1"
   id="svg8"
   sodipodi:docname="AButton.svg"
   inkscape:version="0.92.5 (2060ec1f9f, 2020-04-08)">
  <defs
     id="defs2" />
  <sodipodi:namedview
     id="base"
     pagecolor="#ffffff"
     bordercolor="#666666"
     borderopacity="1.0"
     inkscape:pageopacity="0.0"
     inkscape:pageshadow="2"
     inkscape:zoom="32"
     inkscape:cx="3.3987392"
     inkscape:cy="9.8617668"
     inkscape:document-units="mm"
     inkscape:current-layer="layer1"
     showgrid="true"
     units="px"
     inkscape:window-width="1920"
     inkscape:window-height="1080"
     inkscape:window-x="0"
     inkscape:window-y="0"
     inkscape:window-maximized="1">
    <inkscape:grid
       type="xygrid"
       id="grid828"
       empspacing="5" />
  </sodipodi:namedview>
  <metadata
     id="metadata5">
    <rdf:RDF>
      <cc:Work
         rdf:about="">
        <dc:format>image/svg+xml</dc:format>
        <dc:type
           rdf:resource="http://purl.org/dc/dcmitype/StillImage" />
        <dc:title></dc:title>
      </cc:Work>
    </rdf:RDF>
  </metadata>
  <g
     inkscape:label="Layer 1"
     inkscape:groupmode="layer"
     id="layer1"
     transform="translate(0,-292.76667)">
    <g
       aria-label="BTN"
       transform="matrix(0.04325915,0,0,0.04325915,0.05102117,301.8502)"
       style="font-style:normal;font-weight:normal;font-size:40px;line-height:1.25;font-family:sans-serif;letter-spacing:0px;word-spacing:0px;fill:#000000;fill-opacity:1;stroke:none"
       id="flowRoot1594">
      <path
         d="m 32.65625,-155.80812 q 0,3.98438 -2.578125,6.09375 -2.558594,2.10938 -6.816406,2.10938 h -9.960938 v -28.4375 h 9.316406 q 4.375,0 6.816407,1.8164 2.460937,1.79688 2.460937,5.76172 0,1.97266 -1.132812,3.51563 -1.113282,1.52343 -3.066407,2.36328 2.402344,0.66406 3.671875,2.51953 1.289063,1.85547 1.289063,4.25781 z m -15.585938,-17.14844 v 9.02344 h 5.664063 q 2.421875,0 3.90625,-1.21094 1.484375,-1.21093 1.484375,-3.35937 0,-4.35547 -5.273438,-4.45313 z m 11.835938,17.1875 q 0,-2.38281 -1.308594,-3.75 -1.289062,-1.38671 -4.160156,-1.38671 h -6.367188 v 10.23437 h 6.191407 q 2.675781,0 4.160156,-1.36719 1.484375,-1.38672 1.484375,-3.73047 z"
         style="font-style:normal;font-variant:normal;font-weight:normal;font-stretch:normal;line-height:10px;font-family:Roboto;-inkscape-font-specification:Roboto"
         id="path2252" />
      <path
         d="m 35.371094,-172.95656 v -3.08593 H 57.34375 v 3.08593 h -9.140625 v 25.35157 h -3.710938 v -25.35157 z"
         style="font-style:normal;font-variant:normal;font-weight:normal;font-stretch:normal;line-height:10px;font-family:Roboto;-inkscape-font-specification:Roboto"
         id="path2254" />
      <path
         d="m 83.4375,-176.04249 v 28.4375 h -3.789063 l -14.316406,-21.9336 v 21.9336 H 61.5625 v -28.4375 h 3.769531 l 14.375,21.99218 v -21.99218 z"
         style="font-style:normal;font-variant:normal;font-weight:normal;font-stretch:normal;line-height:10px;font-family:Roboto;-inkscape-font-specification:Roboto"
         id="path2256" />
    </g>
    <path
       style="fill:#000000;fill-opacity:1;stroke:none;stroke-width:0.99999994;stroke-miterlimit:4;stroke-dasharray:none;stroke-dashoffset:0"
       d="M 2 3 C 0.89200006 3 0 3.8920001 0 5 L 0 11 C 0 12.108 0.89200006 13 2 13 L 14 13 C 15.108 13 16 12.108 16 11 L 16 5 C 16 3.8920001 15.108 3 14 3 L 2 3 z M 2 4 L 14 4 C 14.554 4 15 4.446 15 5 L 15 11 C 15 11.554 14.554 12 14 12 L 2 12 C 1.446 12 1 11.554 1 11 L 1 5 C 1 4.446 1.446 4 2 4 z "
       transform="matrix(0.26458333,0,0,0.26458333,0,292.76667)"
       id="rect1608" />
  </g>
</svg>
