<?xml version="1.0" encoding="UTF-8" standalone="no"?>
<!-- Created with Inkscape (http://www.inkscape.org/) -->

<svg
   xmlns:dc="http://purl.org/dc/elements/1.1/"
   xmlns:cc="http://creativecommons.org/ns#"
   xmlns:rdf="http://www.w3.org/1999/02/22-rdf-syntax-ns#"
   xmlns:svg="http://www.w3.org/2000/svg"
   xmlns="http://www.w3.org/2000/svg"
   xmlns:sodipodi="http://sodipodi.sourceforge.net/DTD/sodipodi-0.dtd"
   xmlns:inkscape="http://www.inkscape.org/namespaces/inkscape"
   width="16"
   height="16"
   viewBox="0 0 4.2333332 4.2333332"
   version="1.1"
   id="svg8"
   sodipodi:docname="ALabel.svg"
   inkscape:version="0.92.5 (2060ec1f9f, 2020-04-08)">
  <defs
     id="defs2" />
  <sodipodi:namedview
     id="base"
     pagecolor="#ffffff"
     bordercolor="#666666"
     borderopacity="1.0"
     inkscape:pageopacity="0.0"
     inkscape:pageshadow="2"
     inkscape:zoom="32"
     inkscape:cx="3.3987392"
     inkscape:cy="9.8617668"
     inkscape:document-units="mm"
     inkscape:current-layer="layer1"
     showgrid="true"
     units="px"
     inkscape:window-width="1920"
     inkscape:window-height="1080"
     inkscape:window-x="0"
     inkscape:window-y="0"
     inkscape:window-maximized="1">
    <inkscape:grid
       type="xygrid"
       id="grid828"
       empspacing="5" />
  </sodipodi:namedview>
  <metadata
     id="metadata5">
    <rdf:RDF>
      <cc:Work
         rdf:about="">
        <dc:format>image/svg+xml</dc:format>
        <dc:type
           rdf:resource="http://purl.org/dc/dcmitype/StillImage" />
        <dc:title />
      </cc:Work>
    </rdf:RDF>
  </metadata>
  <g
     inkscape:label="Layer 1"
     inkscape:groupmode="layer"
     id="layer1"
     transform="translate(0,-292.76667)">
    <g
       aria-label="Ab"
       transform="matrix(0.08246051,0,0,0.10060043,-0.70991741,311.16298)"
       style="font-style:normal;font-weight:normal;font-size:40px;line-height:1.25;font-family:sans-serif;letter-spacing:0px;word-spacing:0px;fill:#000000;fill-opacity:1;stroke:none"
       id="flowRoot1594">
      <path
         d="m 10.566406,-147.60499 10.839844,-28.4375 h 3.300781 l 10.878906,28.4375 H 31.71875 l -2.714844,-7.44141 H 17.109375 l -2.695312,7.44141 z m 7.675781,-10.52735 h 9.648438 l -4.824219,-13.26172 z"
         style="font-style:normal;font-variant:normal;font-weight:normal;font-stretch:normal;line-height:10px;font-family:Roboto;-inkscape-font-specification:Roboto"
         id="path2247"
         inkscape:connector-curvature="0" />
      <path
         d="m 56.738281,-157.93702 q 0,4.6289 -2.148437,7.67578 -2.148438,3.04687 -6.074219,3.04687 -4.003906,0 -6.171875,-2.83203 l -0.195313,2.44141 h -3.320312 v -30 h 3.632812 v 11.15234 q 2.148438,-2.67578 6.015625,-2.67578 3.984375,0 6.113282,2.96875 2.148437,2.96875 2.148437,7.8125 z m -9.160156,-8.14454 q -1.972656,0 -3.203125,0.95704 -1.230469,0.9375 -1.914063,2.32421 v 9.19922 q 0.703125,1.40625 1.953125,2.36328 1.25,0.95704 3.203125,0.95704 2.929688,0 4.199219,-2.2461 1.289063,-2.26562 1.289063,-5.41015 v -0.41016 q 0,-3.14453 -1.230469,-5.42969 -1.210938,-2.30469 -4.296875,-2.30469 z"
         style="font-style:normal;font-variant:normal;font-weight:normal;font-stretch:normal;line-height:10px;font-family:Roboto;-inkscape-font-specification:Roboto"
         id="path2249"
         inkscape:connector-curvature="0" />
    </g>
  </g>
</svg>
