<?xml version="1.0" encoding="UTF-8" standalone="no"?>
<!-- Created with Inkscape (http://www.inkscape.org/) -->

<svg
   xmlns:dc="http://purl.org/dc/elements/1.1/"
   xmlns:cc="http://creativecommons.org/ns#"
   xmlns:rdf="http://www.w3.org/1999/02/22-rdf-syntax-ns#"
   xmlns:svg="http://www.w3.org/2000/svg"
   xmlns="http://www.w3.org/2000/svg"
   xmlns:sodipodi="http://sodipodi.sourceforge.net/DTD/sodipodi-0.dtd"
   xmlns:inkscape="http://www.inkscape.org/namespaces/inkscape"
   width="16"
   height="16"
   viewBox="0 0 4.2333332 4.2333332"
   version="1.1"
   id="svg8"
   sodipodi:docname="ATextField.svg"
   inkscape:version="0.92.5 (2060ec1f9f, 2020-04-08)">
  <defs
     id="defs2" />
  <sodipodi:namedview
     id="base"
     pagecolor="#ffffff"
     bordercolor="#666666"
     borderopacity="1.0"
     inkscape:pageopacity="0.0"
     inkscape:pageshadow="2"
     inkscape:zoom="32"
     inkscape:cx="4.1912378"
     inkscape:cy="6.7027328"
     inkscape:document-units="mm"
     inkscape:current-layer="layer1"
     showgrid="true"
     units="px"
     inkscape:window-width="1920"
     inkscape:window-height="1080"
     inkscape:window-x="0"
     inkscape:window-y="0"
     inkscape:window-maximized="1">
    <inkscape:grid
       type="xygrid"
       id="grid828"
       empspacing="5" />
  </sodipodi:namedview>
  <metadata
     id="metadata5">
    <rdf:RDF>
      <cc:Work
         rdf:about="">
        <dc:format>image/svg+xml</dc:format>
        <dc:type
           rdf:resource="http://purl.org/dc/dcmitype/StillImage" />
        <dc:title />
      </cc:Work>
    </rdf:RDF>
  </metadata>
  <g
     inkscape:label="Layer 1"
     inkscape:groupmode="layer"
     id="layer1"
     transform="translate(0,-292.76667)">
    <path
       style="fill:#000000;fill-opacity:1;stroke:none;stroke-width:0.99999994;stroke-miterlimit:4;stroke-dasharray:none;stroke-dashoffset:0"
       d="M 0 3 L 0 13 L 16 13 L 16 3 L 0 3 z M 1 4 L 15 4 L 15 12 L 1 12 L 1 4 z "
       transform="matrix(0.26458333,0,0,0.26458333,0,292.76667)"
       id="rect2259" />
    <rect
       style="fill:#000000;fill-opacity:1;stroke:none;stroke-width:0.26458332;stroke-miterlimit:4;stroke-dasharray:none;stroke-dashoffset:0"
       id="rect2277"
       width="0.26458332"
       height="1.5875"
       x="2.6458333"
       y="294.0896" />
    <g
       aria-label="Ab"
       transform="scale(1.0146961,0.98551675)"
       style="font-style:normal;font-weight:normal;font-size:8.80642319px;line-height:1.25;font-family:sans-serif;letter-spacing:0px;word-spacing:0px;fill:#000000;fill-opacity:1;stroke:none;stroke-width:0.22016056"
       id="text2281">
      <path
         d="M 0.47770454,299.86676 0.95500576,298.6146 H 1.1003461 l 0.4790212,1.25216 H 1.4090869 L 1.2895466,299.5391 H 0.76580528 l -0.11868031,0.32766 z m 0.33798086,-0.46354 h 0.4248411 l -0.2124206,-0.58394 z"
         style="font-style:normal;font-variant:normal;font-weight:normal;font-stretch:normal;font-size:1.76128447px;line-height:0px;font-family:Roboto;-inkscape-font-specification:Roboto;stroke-width:0.22016056"
         id="path817" />
      <path
         d="m 2.5107498,299.41182 q 0,0.20382 -0.0946,0.33798 -0.0946,0.13416 -0.2674607,0.13416 -0.1763004,0 -0.2717606,-0.1247 l -0.0086,0.1075 H 1.7221278 v -1.32096 h 0.1599604 v 0.49106 q 0.0946,-0.11782 0.2648806,-0.11782 0.1754405,0 0.2691807,0.13072 0.0946,0.13072 0.0946,0.344 z M 2.1074087,299.0532 q -0.08686,0 -0.1410403,0.0421 -0.05418,0.0413 -0.08428,0.10234 v 0.40506 q 0.03096,0.0619 0.086,0.10406 0.05504,0.0421 0.1410403,0.0421 0.1290004,0 0.1849005,-0.0989 0.05676,-0.0998 0.05676,-0.23822 v -0.0181 q 0,-0.13846 -0.05418,-0.23908 -0.05332,-0.10148 -0.1892005,-0.10148 z"
         style="font-style:normal;font-variant:normal;font-weight:normal;font-stretch:normal;font-size:1.76128447px;line-height:0px;font-family:Roboto;-inkscape-font-specification:Roboto;stroke-width:0.22016056"
         id="path819" />
    </g>
  </g>
</svg>
